<mxfile host="app.diagrams.net" modified="2023-05-17T06:09:12.582Z" agent="Mozilla/5.0 (Windows NT 10.0; Win64; x64) AppleWebKit/537.36 (KHTML, like Gecko) Chrome/113.0.0.0 Safari/537.36" version="21.2.1" etag="EZ8-gZqc4SOlUcgWln0K" type="github">
  <diagram name="第 1 页" id="7lQIA1fD6MndgyiLCb_i">
    <mxGraphModel>
      <root>
        <mxCell id="0" />
        <mxCell id="1" parent="0" />
      </root>
    </mxGraphModel>
  </diagram>
</mxfile>
